<mxfile host="65bd71144e">
    <diagram id="ZV6AiQ5RT10K4hsEms5L" name="Page-1">
        <mxGraphModel dx="1818" dy="731" grid="1" gridSize="10" guides="1" tooltips="1" connect="1" arrows="1" fold="1" page="1" pageScale="1" pageWidth="850" pageHeight="1100" math="0" shadow="0">
            <root>
                <mxCell id="0"/>
                <mxCell id="1" parent="0"/>
                <mxCell id="29" value="Cloud" style="rounded=0;whiteSpace=wrap;html=1;dashed=1;fillColor=#fff2cc;strokeColor=#d6b656;verticalAlign=top;fontSize=16;fontStyle=0" vertex="1" parent="1">
                    <mxGeometry x="719" y="130" width="480" height="540" as="geometry"/>
                </mxCell>
                <mxCell id="21" value="Dispositivos IoT" style="rounded=0;whiteSpace=wrap;html=1;dashed=1;fillColor=#ffe6cc;strokeColor=#d79b00;verticalAlign=top;fontSize=16;fontStyle=0" vertex="1" parent="1">
                    <mxGeometry x="93" y="430" width="617" height="240" as="geometry"/>
                </mxCell>
                <mxCell id="20" value="&lt;br style=&quot;font-size: 16px;&quot;&gt;&lt;span style=&quot;font-size: 16px;&quot;&gt;&lt;span style=&quot;font-size: 16px; line-height: 107%; font-family: Aptos, sans-serif;&quot;&gt;InteligÃªncia Artificial de Borda&lt;/span&gt;&lt;/span&gt;" style="rounded=0;whiteSpace=wrap;html=1;dashed=1;fillColor=#dae8fc;strokeColor=#6c8ebf;verticalAlign=top;fontSize=16;fontStyle=0" vertex="1" parent="1">
                    <mxGeometry x="93" y="130" width="617" height="290" as="geometry"/>
                </mxCell>
                <mxCell id="8" style="edgeStyle=none;html=1;entryX=0;entryY=0.5;entryDx=0;entryDy=0;fontSize=16;" edge="1" parent="1" source="4" target="5">
                    <mxGeometry relative="1" as="geometry"/>
                </mxCell>
                <mxCell id="4" value="" style="fontColor=#0066CC;verticalAlign=top;verticalLabelPosition=bottom;labelPosition=center;align=center;html=1;outlineConnect=0;fillColor=#CCCCCC;strokeColor=#6881B3;gradientColor=none;gradientDirection=north;strokeWidth=2;shape=mxgraph.networks.security_camera;fontSize=16;" vertex="1" parent="1">
                    <mxGeometry x="120" y="235" width="66.67" height="50" as="geometry"/>
                </mxCell>
                <mxCell id="10" value="REST API" style="edgeStyle=orthogonalEdgeStyle;html=1;exitX=0.5;exitY=0;exitDx=0;exitDy=0;entryX=0.5;entryY=0;entryDx=0;entryDy=0;fontSize=16;" edge="1" parent="1" source="5" target="6">
                    <mxGeometry relative="1" as="geometry">
                        <Array as="points">
                            <mxPoint x="300" y="200"/>
                            <mxPoint x="440" y="200"/>
                        </Array>
                    </mxGeometry>
                </mxCell>
                <mxCell id="18" style="edgeStyle=orthogonalEdgeStyle;html=1;fontSize=16;" edge="1" parent="1" source="5" target="11">
                    <mxGeometry relative="1" as="geometry">
                        <Array as="points">
                            <mxPoint x="300" y="364"/>
                        </Array>
                    </mxGeometry>
                </mxCell>
                <mxCell id="5" value="Camera Module" style="rounded=1;whiteSpace=wrap;html=1;fillColor=#dae8fc;strokeColor=#6c8ebf;fontSize=16;" vertex="1" parent="1">
                    <mxGeometry x="240" y="230" width="120" height="60" as="geometry"/>
                </mxCell>
                <mxCell id="6" value="Mobile Detection&amp;nbsp; Module" style="rounded=1;whiteSpace=wrap;html=1;fillColor=#dae8fc;strokeColor=#6c8ebf;fontSize=16;" vertex="1" parent="1">
                    <mxGeometry x="380" y="230" width="120" height="60" as="geometry"/>
                </mxCell>
                <mxCell id="28" value="l2C" style="edgeStyle=orthogonalEdgeStyle;html=1;entryX=1;entryY=0.5;entryDx=0;entryDy=0;entryPerimeter=0;fontSize=16;fontStyle=0;labelBackgroundColor=none;" edge="1" parent="1" source="7" target="23">
                    <mxGeometry relative="1" as="geometry">
                        <Array as="points">
                            <mxPoint x="660" y="260"/>
                            <mxPoint x="660" y="572"/>
                        </Array>
                    </mxGeometry>
                </mxCell>
                <mxCell id="32" style="edgeStyle=orthogonalEdgeStyle;html=1;exitX=0.5;exitY=0;exitDx=0;exitDy=0;labelBackgroundColor=none;fontSize=16;" edge="1" parent="1" source="7" target="30">
                    <mxGeometry relative="1" as="geometry">
                        <Array as="points">
                            <mxPoint x="580" y="200"/>
                            <mxPoint x="906" y="200"/>
                        </Array>
                    </mxGeometry>
                </mxCell>
                <mxCell id="7" value="Command Module" style="rounded=1;whiteSpace=wrap;html=1;fillColor=#dae8fc;strokeColor=#6c8ebf;fontSize=16;" vertex="1" parent="1">
                    <mxGeometry x="520" y="230" width="120" height="60" as="geometry"/>
                </mxCell>
                <mxCell id="16" style="edgeStyle=orthogonalEdgeStyle;html=1;entryX=0.5;entryY=1;entryDx=0;entryDy=0;fontSize=16;" edge="1" parent="1" source="11" target="7">
                    <mxGeometry relative="1" as="geometry"/>
                </mxCell>
                <mxCell id="11" value="Queue" style="sketch=0;outlineConnect=0;fontColor=#232F3E;gradientColor=none;fillColor=#B0084D;strokeColor=none;dashed=0;verticalLabelPosition=bottom;verticalAlign=top;align=center;html=1;fontSize=16;fontStyle=0;aspect=fixed;pointerEvents=1;shape=mxgraph.aws4.queue;" vertex="1" parent="1">
                    <mxGeometry x="401" y="340" width="78" height="47" as="geometry"/>
                </mxCell>
                <mxCell id="24" style="edgeStyle=orthogonalEdgeStyle;html=1;fontSize=16;" edge="1" parent="1" source="22" target="23">
                    <mxGeometry relative="1" as="geometry"/>
                </mxCell>
                <mxCell id="22" value="Sensor de Temperatura" style="sketch=0;outlineConnect=0;fontColor=#232F3E;gradientColor=none;fillColor=#3F8624;strokeColor=none;dashed=0;verticalLabelPosition=bottom;verticalAlign=top;align=center;html=1;fontSize=16;fontStyle=0;aspect=fixed;pointerEvents=1;shape=mxgraph.aws4.iot_thing_temperature_sensor;" vertex="1" parent="1">
                    <mxGeometry x="360" y="534.5" width="75.5" height="75.5" as="geometry"/>
                </mxCell>
                <mxCell id="26" style="edgeStyle=orthogonalEdgeStyle;html=1;fontSize=16;" edge="1" parent="1" source="23" target="25">
                    <mxGeometry relative="1" as="geometry">
                        <Array as="points">
                            <mxPoint x="604" y="490"/>
                            <mxPoint x="178" y="490"/>
                        </Array>
                    </mxGeometry>
                </mxCell>
                <mxCell id="23" value="Controlador PID" style="outlineConnect=0;dashed=0;verticalLabelPosition=bottom;verticalAlign=top;align=center;html=1;shape=mxgraph.aws3.hardware_board;fillColor=#5294CF;gradientColor=none;fontSize=16;" vertex="1" parent="1">
                    <mxGeometry x="567.7" y="529" width="72.3" height="86.5" as="geometry"/>
                </mxCell>
                <mxCell id="25" value="Servo" style="html=1;verticalLabelPosition=bottom;align=center;labelBackgroundColor=none;verticalAlign=top;strokeWidth=2;strokeColor=#0080F0;shadow=0;dashed=0;shape=mxgraph.ios7.icons.settings;fontSize=16;" vertex="1" parent="1">
                    <mxGeometry x="140" y="534.75" width="75" height="75" as="geometry"/>
                </mxCell>
                <mxCell id="37" style="edgeStyle=orthogonalEdgeStyle;html=1;labelBackgroundColor=none;fontSize=16;" edge="1" parent="1" source="30" target="33">
                    <mxGeometry relative="1" as="geometry"/>
                </mxCell>
                <mxCell id="41" style="edgeStyle=orthogonalEdgeStyle;html=1;entryX=0.51;entryY=-0.028;entryDx=0;entryDy=0;entryPerimeter=0;labelBackgroundColor=none;fontSize=16;" edge="1" parent="1" source="30" target="39">
                    <mxGeometry relative="1" as="geometry"/>
                </mxCell>
                <mxCell id="42" style="edgeStyle=orthogonalEdgeStyle;html=1;entryX=0.75;entryY=0;entryDx=0;entryDy=0;labelBackgroundColor=none;fontSize=16;" edge="1" parent="1" source="30" target="40">
                    <mxGeometry relative="1" as="geometry"/>
                </mxCell>
                <mxCell id="43" style="edgeStyle=orthogonalEdgeStyle;html=1;labelBackgroundColor=none;fontSize=16;" edge="1" parent="1" source="30" target="38">
                    <mxGeometry relative="1" as="geometry">
                        <Array as="points">
                            <mxPoint x="967" y="290"/>
                        </Array>
                    </mxGeometry>
                </mxCell>
                <mxCell id="30" value="REST API" style="aspect=fixed;html=1;points=[];align=center;image;fontSize=12;image=img/lib/azure2/app_services/API_Management_Services.svg;dashed=1;labelBackgroundColor=none;" vertex="1" parent="1">
                    <mxGeometry x="873" y="260" width="65" height="60" as="geometry"/>
                </mxCell>
                <mxCell id="33" value="Storage" style="html=1;verticalLabelPosition=bottom;align=center;labelBackgroundColor=none;verticalAlign=top;strokeWidth=2;strokeColor=#0080F0;shadow=0;dashed=0;shape=mxgraph.ios7.icons.data;fontSize=16;" vertex="1" parent="1">
                    <mxGeometry x="780" y="545" width="39.59" height="48" as="geometry"/>
                </mxCell>
                <mxCell id="38" value="WhatsApp" style="dashed=0;outlineConnect=0;html=1;align=center;labelPosition=center;verticalLabelPosition=bottom;verticalAlign=top;shape=mxgraph.weblogos.whatsapp;fillColor=#00E676;strokeColor=#dddddd;labelBackgroundColor=none;fontSize=16;" vertex="1" parent="1">
                    <mxGeometry x="938" y="540" width="58" height="58" as="geometry"/>
                </mxCell>
                <mxCell id="39" value="Mobile" style="html=1;verticalLabelPosition=bottom;align=center;labelBackgroundColor=none;verticalAlign=top;strokeWidth=2;strokeColor=#0080F0;shadow=0;dashed=0;shape=mxgraph.ios7.icons.smartphone;fontSize=16;" vertex="1" parent="1">
                    <mxGeometry x="1041.1" y="550" width="28.8" height="48" as="geometry"/>
                </mxCell>
                <mxCell id="40" value="Web" style="aspect=fixed;perimeter=ellipsePerimeter;html=1;align=center;shadow=0;dashed=0;spacingTop=3;image;image=img/lib/active_directory/laptop_client.svg;labelBackgroundColor=none;fontSize=16;" vertex="1" parent="1">
                    <mxGeometry x="1113" y="544" width="45" height="50" as="geometry"/>
                </mxCell>
            </root>
        </mxGraphModel>
    </diagram>
</mxfile>